<svg xmlns="http://www.w3.org/2000/svg" viewBox="0 0 109.04 163.97"><defs><style>.cls-1{fill:#a4a3a3;}.cls-2{fill:none;}</style></defs><title>icono_camaras</title><g id="Capa_2" data-name="Capa 2"><g id="Capa_1-2" data-name="Capa 1"><path class="cls-1" d="M95.72,2.05c-.11,0-.11.11-.22.11C89.61,6.49,83.95,6.38,78,2.39c-4.55-3-9.55-3.11-14,0-6,4.11-11.55,4-17.54,0A12,12,0,0,0,32.2,2.5c-5.66,3.89-11.22,4-16.88,0A13.1,13.1,0,0,0,6,.28C2.22.83,1.78,1.39,1.78,5.05v5c5.89-2.89,10.77-.89,15.66,2.22,4.22,2.67,8.88,2.44,13.1-.44,5.89-4.11,11.55-4.22,17.54-.11a12,12,0,0,0,14.21,0c5.77-4,11.22-4,17.1-.11,4.55,3.11,9.55,3.33,14.21.22s9.22-4.44,15.44-1.44c-.56-3.55,0-7.55-1.55-8.77C103.94-1.06,99.61-.06,95.72,2.05Z"/><path class="cls-2" d="M54.52,93.66A22.43,22.43,0,1,0,32.09,71.23,22.37,22.37,0,0,0,54.52,93.66Zm0-35.64A13.21,13.21,0,1,1,41.31,71.23,13.17,13.17,0,0,1,54.52,58Z"/><path class="cls-2" d="M56,43.14A8.83,8.83,0,1,0,45.86,33,8.84,8.84,0,0,0,56,43.14Z"/><path class="cls-1" d="M109,141.75l-22.1-38.2A48.06,48.06,0,1,0,6.44,68a47.46,47.46,0,0,0,14.1,34L0,141.75ZM45.75,33a9,9,0,0,1,7.33-7.33,8.82,8.82,0,0,1,10.1,10.1,9,9,0,0,1-7.33,7.33A8.86,8.86,0,0,1,45.75,33ZM54.52,48.8A22.43,22.43,0,1,1,32.09,71.23,22.37,22.37,0,0,1,54.52,48.8Z"/><circle class="cls-1" cx="54.52" cy="71.23" r="13.21"/><path class="cls-1" d="M94.78,151.89c-.11,0-.11.11-.22.11-5.89,4.33-11.55,4.22-17.54.22-4.55-3-9.55-3.11-14,0-6,4.11-11.55,4-17.54,0a12,12,0,0,0-14.21.11c-5.66,3.89-11.22,4-16.88,0a13.1,13.1,0,0,0-9.33-2.22c-3.78.56-4.22,1.11-4.22,4.77v5c5.89-2.89,10.77-.89,15.66,2.22,4.22,2.67,8.88,2.44,13.1-.44,5.89-4.11,11.55-4.22,17.54-.11a12,12,0,0,0,14.21,0c5.77-4,11.22-4,17.1-.11,4.55,3.11,9.55,3.33,14.21.22s9.22-4.44,15.44-1.44c-.56-3.55,0-7.55-1.55-8.77C103,148.78,98.67,149.78,94.78,151.89Z"/></g></g></svg>