<svg xmlns="http://www.w3.org/2000/svg" viewBox="0 0 145 145"><defs><style>.cls-1{fill:#007aff;}</style></defs><title>icono_recomendacion</title><g id="Capa_2" data-name="Capa 2"><g id="Capa_1-2" data-name="Capa 1"><path class="cls-1" d="M107.09,92.29c0,17.37-9.67,33.23-23.41,38.06a3.76,3.76,0,0,1-2.87-.3c-13.29-8-23-20.54-29.91-36.25a4.18,4.18,0,0,1,0-2.72c7.7-15,17.37-27.34,30.21-35.8a4.26,4.26,0,0,1,4.23-.3C98.48,60.57,107.09,75.37,107.09,92.29ZM85.64,87.45c0-4.83-3-8.46-6.95-8.61-3.93,0-7.1,3.63-7.1,8.46s3.17,8.76,7.1,8.76S85.64,92.29,85.64,87.45ZM72.5,0A72.5,72.5,0,1,0,145,72.5,72.52,72.52,0,0,0,72.5,0Zm42.44,92.44c-.15,18.12-7.1,31.87-19.48,41.84a64.44,64.44,0,0,1-23,4.08,65.84,65.84,0,0,1-52-106.48V65.1a9.3,9.3,0,0,0,0,16.92V93.95s0,19,17.07,17.07c0,0,13.29-2,9.52-17.07,0,0,0,11.33-11.33,11.33,0,0-7.55,0-7.55-11.33V82a9.3,9.3,0,0,0,0-16.92V23.71A65.87,65.87,0,0,1,136.69,56.94,69.83,69.83,0,0,0,114.64,48a40.22,40.22,0,0,0-20.24.91C107.84,59.36,115.09,73.56,114.94,92.44Z"/></g></g></svg>