<svg xmlns="http://www.w3.org/2000/svg" viewBox="0 0 54.3 54.3"><defs><style>.cls-1{fill:#76a840;}.cls-2{fill:#fcfcfc;fill-rule:evenodd;}</style></defs><title>instagram</title><g id="Capa_2" data-name="Capa 2"><g id="Capa_1-2" data-name="Capa 1"><path class="cls-1" d="M54.3,27.16A27.15,27.15,0,1,1,27.13,0,27.13,27.13,0,0,1,54.3,27.16Z"/><path class="cls-2" d="M38,12.41H16.27c-2.58,0-3.91,1.34-3.91,3.94V38.07c0,2.49,1.37,3.86,3.82,3.86H38c2.52,0,3.88-1.37,3.88-3.91V16.29C41.91,13.75,40.56,12.41,38,12.41Zm-2.4,3.33c2.92,0,2.92,0,2.92,3s0,2.86-2.86,2.86-2.92,0-2.92-2.92S32.77,15.74,35.64,15.74Zm-8.47,5.7a5.72,5.72,0,1,1-5.76,5.65A5.79,5.79,0,0,1,27.16,21.43Zm11.4,15.38c0,1.37-.39,1.75-1.76,1.75H17.48c-1.36,0-1.74-.37-1.74-1.75,0-3.58,0-7.19,0-10.77,0-1,.28-1.25,1.24-1.22,1.34.12,1.37.06,1.21,1.36A9.06,9.06,0,1,0,36,25.49c-.11-.51,0-.61.48-.61,2-.15,2-.19,2,1.91Z"/></g></g></svg>