<svg xmlns="http://www.w3.org/2000/svg" xmlns:xlink="http://www.w3.org/1999/xlink" viewBox="0 0 360.04 72.88"><defs><style>.cls-1{fill:#fff;}.cls-2{fill:url(#Degradado_sin_nombre_2);}.cls-3{fill:url(#Degradado_sin_nombre_2-2);}</style><linearGradient id="Degradado_sin_nombre_2" x1="216.32" y1="36.1" x2="235.15" y2="36.1" gradientUnits="userSpaceOnUse"><stop offset="0.01" stop-color="#5f8532"/><stop offset="1" stop-color="#75a73f"/></linearGradient><linearGradient id="Degradado_sin_nombre_2-2" x1="0" y1="36.44" x2="72.97" y2="36.44" xlink:href="#Degradado_sin_nombre_2"/></defs><title>logo</title><g id="Capa_2" data-name="Capa 2"><g id="Capa_1-2" data-name="Capa 1"><path class="cls-1" d="M90.83,49.89V18.6q0-7.22,3.93-11.32t10.85-4.09q6.55,0,10.37,4.2t3.82,11.47v5.87h-9.67V18a7.69,7.69,0,0,0-1.23-4.75,5,5,0,0,0-7.26,0A7.68,7.68,0,0,0,100.42,18V52.08a7.79,7.79,0,0,0,1.22,4.77,4.91,4.91,0,0,0,7.26,0,7.79,7.79,0,0,0,1.23-4.77V43.77h9.67v6.38q0,8-3.78,12.37t-10.75,4.35q-7.14,0-10.79-4.31T90.83,49.89Z"/><path class="cls-1" d="M129.59,66.86V5.8h9.33V58h14.61v8.83Z"/><path class="cls-1" d="M160.54,66.86V5.8h9.59V66.86Z"/><path class="cls-1" d="M180.18,49.89V18.6q0-7.22,3.93-11.32T195,3.19q6.55,0,10.37,4.2t3.82,11.47v5.87h-9.67V18a7.69,7.69,0,0,0-1.22-4.75,5,5,0,0,0-7.26,0A7.68,7.68,0,0,0,189.76,18V52.08A7.79,7.79,0,0,0,191,56.85a4.91,4.91,0,0,0,7.26,0,7.79,7.79,0,0,0,1.22-4.77V43.77h9.67v6.38q0,8-3.78,12.37t-10.75,4.35q-7.14,0-10.79-4.31T180.18,49.89Z"/><path class="cls-1" d="M244.86,66.86V5.8h24.53v8.83H254.27v16h10.89v8.83H254.27v27.4Z"/><path class="cls-1" d="M275.47,66.86V5.8h9.59V66.86Z"/><path class="cls-1" d="M293.37,50l9-1.35q.25,4.64,1.77,6.86a5.08,5.08,0,0,0,4.48,2.22,5.63,5.63,0,0,0,4.18-1.62,5.84,5.84,0,0,0,1.6-4.29q0-4.77-7.6-12.33l-.89-.89q-7.43-7.43-9.54-11.42a17.82,17.82,0,0,1-2.11-8.47A15.09,15.09,0,0,1,298.5,7.81,13.83,13.83,0,0,1,308.87,3.4a12.74,12.74,0,0,1,9.75,4.07q3.8,4.08,4.35,11l-9.2,1.31q-.25-4.1-1.46-5.87a4.16,4.16,0,0,0-3.7-1.78A4.65,4.65,0,0,0,305,13.72a6,6,0,0,0-1.37,4.12q0,5.32,8.87,13.89l.55.55q6.5,6.34,8.53,10.35a19.66,19.66,0,0,1,2,9,15.12,15.12,0,0,1-4.14,11A13.93,13.93,0,0,1,309,66.86q-7,0-11.13-4.48T293.37,50Z"/><path class="cls-1" d="M331.88,5.8h9.33V30.71h9.42V5.8H360V66.86h-9.41V39.54h-9.42V66.86h-9.33Z"/><path class="cls-2" d="M235.15,48.45h-4.57l-1.75-2.6A7.48,7.48,0,0,1,223,49a6.19,6.19,0,0,1-4.79-2,7.41,7.41,0,0,1-1.86-5.22,10,10,0,0,1,4.09-8.21,8.42,8.42,0,0,1-1.6-4.72,5.59,5.59,0,0,1,1.49-4,5.06,5.06,0,0,1,3.86-1.58q3.6.08,5.46,3.83l-3,1.52a2.89,2.89,0,0,0-2.53-2,2,2,0,0,0-1.43.65,2.16,2.16,0,0,0-.58,1.54,6.07,6.07,0,0,0,1.41,3.42l5.28,7.5a15.64,15.64,0,0,0,.56-3.23h3.19a15.91,15.91,0,0,1-1.6,6.2Zm-8.36-5.57-4.38-6.17q-2.56,2.45-2.56,4.94a3.73,3.73,0,0,0,1,2.56,3,3,0,0,0,2.3,1.08Q225.12,45.29,226.79,42.88Z"/><path class="cls-3" d="M56.32,72.88H16.82A17,17,0,0,1,0,56.23V16.73C0,7.68,8,0,17,0h38.5C65.29,0,73,8.2,73,16.73v39.5A16.84,16.84,0,0,1,56.32,72.88Z"/><path class="cls-1" d="M57.18,18.33s3.21-.68,3.81-3c.38-1.42-3.79-1.84-8.74-2A42.18,42.18,0,0,0,39.12,15C26.05,18.67,7.61,31.28,11.45,47.33c2.87,12,15.07,11.26,20.66,12.56s10.92,5,10.16,5.73c-1.78-2.12-7-4.71-14.82-5.39s-14.67-4-17.14-11.17S8.12,31.88,20.45,21.63c11.66-9.69,27.07-11.7,36.77-9.87,6.1,1.15,8.25,2.22,6.77,2.87a8.34,8.34,0,0,0-1.88,1.52A7.2,7.2,0,0,1,57.18,18.33Z"/><path class="cls-1" d="M62.74,18.45s-2.12,6.11-12.52,11c-3.78,1.77-4.22,2-11.85,3.72C27.51,35.6,23,37.45,21,40.84a8.5,8.5,0,0,0,2.36,11.52c4.26,3.1,12.4,3.39,16.67-4.83A12.47,12.47,0,0,1,31,55.69a11.27,11.27,0,0,1-14.21-9.37c-1.14-8,5.39-12.72,14.6-14.48C42.74,29.68,54.93,28.67,62.74,18.45Z"/><circle class="cls-1" cx="51.45" cy="17.27" r="1.58" transform="translate(-2.75 14.43) rotate(-15.55)"/><path class="cls-1" d="M28.26,15.77a4.82,4.82,0,0,0-3.7-.61,19.9,19.9,0,0,1-6.23.22c-.83-.27-.85,6.91-3.12,10.06,0,0,4-3.64,4.11-8.32C24.68,16,26.25,15.32,28.26,15.77Z"/><path class="cls-1" d="M40.07,46.83S36.89,51.89,29.55,50c0,0,1.05,4.78,4.86,3.67C38.47,52.5,39.93,48.12,40.07,46.83Z"/></g></g></svg>